<svg xmlns="http://www.w3.org/2000/svg" xmlns:xlink="http://www.w3.org/1999/xlink" width="500" zoomAndPan="magnify" viewBox="0 0 375 374.999991" height="500" preserveAspectRatio="xMidYMid meet" version="1.0"><defs><g/><clipPath id="4891a0a4f2"><path d="M 59 181.222656 L 316 181.222656 L 316 228 L 59 228 Z M 59 181.222656 " clip-rule="nonzero"/></clipPath><clipPath id="c0e1600fd9"><path d="M 11.910156 239 L 362.910156 239 L 362.910156 305.722656 L 11.910156 305.722656 Z M 11.910156 239 " clip-rule="nonzero"/></clipPath><clipPath id="27bbc4e498"><path d="M 161.136719 316.199219 L 170.886719 316.199219 L 170.886719 325.949219 L 161.136719 325.949219 Z M 161.136719 316.199219 " clip-rule="nonzero"/></clipPath><clipPath id="25e7c25d73"><path d="M 204.398438 316.199219 L 214 316.199219 L 214 325.949219 L 204.398438 325.949219 Z M 204.398438 316.199219 " clip-rule="nonzero"/></clipPath><clipPath id="297d707a35"><path d="M 179.632812 316.199219 L 195.382812 316.199219 L 195.382812 331.949219 L 179.632812 331.949219 Z M 179.632812 316.199219 " clip-rule="nonzero"/></clipPath><clipPath id="323f3d33bf"><path d="M 74.328125 48.582031 L 203 48.582031 L 203 208 L 74.328125 208 Z M 74.328125 48.582031 " clip-rule="nonzero"/></clipPath></defs><g clip-path="url(#4891a0a4f2)"><path fill="#ffffff" d="M 59.820312 181.558594 C 59.890625 181.472656 59.980469 181.421875 60.089844 181.410156 C 60.199219 181.398438 60.296875 181.421875 60.386719 181.488281 C 61.433594 182.074219 62.839844 182.964844 64.566406 184.132812 C 66.320312 185.261719 68.46875 186.574219 70.875 188.175781 C 72.058594 188.996094 73.394531 189.769531 74.789062 190.613281 L 79.175781 193.3125 C 80.722656 194.226562 82.386719 195.121094 84.085938 196.101562 L 86.6875 197.597656 C 87.578125 198.097656 88.515625 198.546875 89.449219 199.042969 C 107.753906 208.824219 127.066406 215.820312 147.390625 220.027344 C 160.621094 222.746094 173.992188 224.121094 187.5 224.152344 C 201.007812 224.121094 214.378906 222.746094 227.609375 220.027344 C 247.933594 215.820312 267.25 208.824219 285.554688 199.042969 C 286.488281 198.546875 287.425781 198.097656 288.3125 197.597656 L 290.914062 196.105469 C 292.613281 195.121094 294.277344 194.226562 295.828125 193.3125 L 300.214844 190.613281 C 301.605469 189.769531 302.941406 188.996094 304.128906 188.175781 C 306.53125 186.578125 308.679688 185.265625 310.4375 184.132812 C 312.152344 182.960938 313.5625 182.074219 314.609375 181.488281 C 314.699219 181.421875 314.796875 181.398438 314.90625 181.410156 C 315.015625 181.421875 315.101562 181.472656 315.171875 181.558594 C 315.214844 181.664062 315.21875 181.773438 315.183594 181.878906 C 315.144531 181.988281 315.082031 182.074219 314.984375 182.136719 C 306.066406 189.453125 296.589844 195.953125 286.554688 201.636719 C 276.515625 207.320312 266.070312 212.105469 255.210938 215.992188 C 244.339844 219.863281 233.222656 222.785156 221.855469 224.75 C 210.488281 226.71875 199.035156 227.703125 187.496094 227.710938 C 175.960938 227.703125 164.507812 226.71875 153.136719 224.75 C 141.769531 222.785156 130.652344 219.863281 119.785156 215.992188 C 108.925781 212.105469 98.476562 207.320312 88.441406 201.636719 C 78.40625 195.949219 68.929688 189.453125 60.011719 182.136719 C 59.914062 182.074219 59.847656 181.988281 59.8125 181.878906 C 59.777344 181.773438 59.78125 181.664062 59.820312 181.558594 Z M 59.820312 181.558594 " fill-opacity="1" fillRule="evenodd"/></g><g clip-path="url(#c0e1600fd9)"><path fill="#ffffff" d="M 363.003906 239.613281 C 363.15625 239.734375 363.089844 240.011719 362.847656 240.265625 C 361.714844 241.449219 360.0625 243.039062 357.941406 244.992188 C 355.789062 246.910156 353.082031 249.09375 349.964844 251.628906 C 348.414062 252.917969 346.6875 254.175781 344.855469 255.515625 L 339.039062 259.730469 C 336.976562 261.164062 334.75 262.582031 332.453125 264.089844 L 328.925781 266.386719 C 327.722656 267.148438 326.449219 267.867188 325.175781 268.621094 C 313.683594 275.527344 301.710938 281.460938 289.257812 286.425781 C 274.605469 292.3125 259.546875 296.847656 244.082031 300.03125 C 225.414062 303.871094 206.554688 305.804688 187.496094 305.832031 C 168.441406 305.804688 149.582031 303.871094 130.914062 300.03125 C 115.449219 296.847656 100.390625 292.3125 85.738281 286.425781 C 73.285156 281.460938 61.3125 275.527344 49.820312 268.621094 C 48.546875 267.863281 47.277344 267.144531 46.070312 266.382812 L 42.546875 264.09375 C 40.25 262.582031 38.027344 261.164062 35.957031 259.730469 L 30.144531 255.515625 C 28.3125 254.175781 26.578125 252.917969 25.035156 251.632812 C 21.917969 249.097656 19.210938 246.910156 17.058594 244.992188 C 14.933594 243.039062 13.285156 241.449219 12.15625 240.269531 C 11.914062 240.011719 11.84375 239.734375 11.996094 239.613281 C 12.148438 239.492188 12.472656 239.570312 12.753906 239.800781 C 24.980469 249.828125 37.972656 258.738281 51.734375 266.53125 C 65.496094 274.320312 79.820312 280.882812 94.707031 286.207031 C 109.601562 291.515625 124.839844 295.519531 140.417969 298.21875 C 156 300.914062 171.695312 302.265625 187.507812 302.269531 C 203.320312 302.265625 219.015625 300.914062 234.597656 298.21875 C 250.175781 295.519531 265.414062 291.515625 280.308594 286.207031 C 295.195312 280.878906 309.519531 274.320312 323.28125 266.53125 C 337.042969 258.738281 350.035156 249.828125 362.261719 239.800781 C 362.53125 239.570312 362.851562 239.492188 363.003906 239.613281 Z M 363.003906 239.613281 " fill-opacity="1" fillRule="evenodd"/></g><g clip-path="url(#27bbc4e498)"><path fill="#ffffff" d="M 170.578125 319.949219 C 170.535156 319.8125 170.441406 319.746094 170.296875 319.746094 L 167.257812 319.746094 L 166.144531 316.398438 C 166.097656 316.265625 166.003906 316.199219 165.863281 316.199219 C 165.722656 316.199219 165.628906 316.265625 165.585938 316.398438 L 164.46875 319.746094 L 161.429688 319.746094 C 161.289062 319.746094 161.195312 319.8125 161.148438 319.945312 C 161.101562 320.085938 161.136719 320.195312 161.257812 320.28125 L 163.703125 322.039062 L 162.628906 325.265625 C 162.582031 325.398438 162.617188 325.507812 162.734375 325.59375 C 162.785156 325.632812 162.84375 325.652344 162.910156 325.652344 C 162.972656 325.652344 163.03125 325.632812 163.085938 325.597656 L 165.867188 323.59375 L 168.644531 325.597656 C 168.695312 325.636719 168.753906 325.652344 168.816406 325.65625 C 168.917969 325.652344 168.996094 325.613281 169.054688 325.53125 C 169.117188 325.449219 169.128906 325.363281 169.097656 325.265625 L 168.023438 322.042969 L 170.46875 320.28125 C 170.585938 320.195312 170.625 320.085938 170.578125 319.949219 Z M 170.578125 319.949219 " fill-opacity="1" fillRule="evenodd"/></g><g clip-path="url(#25e7c25d73)"><path fill="#ffffff" d="M 213.839844 319.949219 C 213.792969 319.8125 213.699219 319.746094 213.558594 319.746094 L 210.519531 319.746094 L 209.40625 316.398438 C 209.359375 316.265625 209.265625 316.199219 209.125 316.199219 C 208.984375 316.199219 208.890625 316.265625 208.847656 316.398438 L 207.730469 319.746094 L 204.691406 319.746094 C 204.550781 319.746094 204.457031 319.8125 204.410156 319.945312 C 204.363281 320.085938 204.398438 320.195312 204.519531 320.28125 L 206.964844 322.039062 L 205.890625 325.265625 C 205.84375 325.398438 205.878906 325.507812 205.996094 325.59375 C 206.046875 325.632812 206.105469 325.652344 206.171875 325.652344 C 206.234375 325.652344 206.292969 325.632812 206.34375 325.597656 L 209.125 323.59375 L 211.90625 325.597656 C 211.957031 325.636719 212.015625 325.652344 212.078125 325.65625 C 212.179688 325.652344 212.257812 325.613281 212.316406 325.53125 C 212.375 325.449219 212.390625 325.363281 212.359375 325.265625 L 211.285156 322.042969 L 213.730469 320.28125 C 213.847656 320.195312 213.886719 320.085938 213.839844 319.949219 Z M 213.839844 319.949219 " fill-opacity="1" fillRule="evenodd"/></g><g clip-path="url(#297d707a35)"><path fill="#aa8254" d="M 195.335938 322.433594 C 195.261719 322.210938 195.105469 322.097656 194.871094 322.097656 L 189.816406 322.097656 L 187.960938 316.535156 C 187.886719 316.3125 187.734375 316.203125 187.5 316.203125 C 187.265625 316.203125 187.109375 316.3125 187.035156 316.535156 L 185.179688 322.097656 L 180.125 322.097656 C 179.890625 322.097656 179.734375 322.207031 179.660156 322.433594 C 179.582031 322.660156 179.640625 322.847656 179.835938 322.988281 L 183.90625 325.910156 L 182.121094 331.273438 C 182.042969 331.5 182.101562 331.683594 182.292969 331.824219 C 182.378906 331.886719 182.476562 331.917969 182.585938 331.921875 C 182.691406 331.917969 182.789062 331.886719 182.875 331.824219 L 187.5 328.5 L 192.121094 331.828125 C 192.207031 331.890625 192.304688 331.921875 192.410156 331.921875 C 192.488281 331.921875 192.5625 331.90625 192.632812 331.867188 C 192.703125 331.832031 192.761719 331.785156 192.808594 331.71875 C 192.851562 331.65625 192.882812 331.585938 192.894531 331.507812 C 192.90625 331.429688 192.898438 331.351562 192.875 331.277344 L 191.089844 325.914062 L 195.15625 322.988281 C 195.351562 322.847656 195.414062 322.664062 195.335938 322.433594 Z M 195.335938 322.433594 " fill-opacity="1" fillRule="evenodd"/></g><g fill="#aa8254" fill-opacity="1"><g transform="translate(75.055187, 256.832365)"><g><path d="M 22.847656 9.707031 C 23.613281 10.03125 24.101562 9.675781 24.03125 8.910156 L 23.585938 -14.074219 L 38.796875 -27.304688 C 39.417969 -27.832031 39.332031 -28.433594 38.617188 -28.738281 L 33.597656 -30.867188 C 33.070312 -31.09375 32.632812 -30.996094 32.191406 -30.617188 L 18.433594 -18.6875 L 24.730469 -33.507812 C 24.992188 -34.128906 24.800781 -34.605469 24.179688 -34.867188 L 19.589844 -36.820312 C 18.96875 -37.082031 18.492188 -36.890625 18.230469 -36.269531 L 2.796875 0.0585938 C 2.53125 0.679688 2.722656 1.15625 3.347656 1.421875 L 7.933594 3.371094 C 8.554688 3.636719 9.03125 3.441406 9.296875 2.820312 L 13.785156 -7.742188 L 16.996094 -10.386719 L 16.988281 6.371094 C 16.976562 6.929688 17.207031 7.308594 17.78125 7.554688 Z M 22.847656 9.707031 "/></g></g></g><g fill="#aa8254" fill-opacity="1"><g transform="translate(110.259692, 271.051276)"><g><path d="M 26.78125 6.789062 C 27.386719 6.941406 27.664062 6.691406 27.703125 6.113281 L 29.160156 -34.71875 C 29.1875 -35.246094 28.9375 -35.527344 28.484375 -35.640625 L 21.488281 -37.414062 C 21.035156 -37.53125 20.679688 -37.40625 20.453125 -36.925781 L 2.28125 -0.332031 C 1.988281 0.183594 2.164062 0.546875 2.71875 0.6875 L 8.105469 2.054688 C 8.558594 2.167969 8.875 1.980469 9.089844 1.554688 L 12.3125 -5.449219 L 21.273438 -3.179688 L 20.820312 4.527344 C 20.804688 5.007812 20.992188 5.320312 21.445312 5.4375 Z M 21.496094 -9.339844 L 15.050781 -10.972656 L 22.726562 -27.722656 Z M 21.496094 -9.339844 "/></g></g></g><g fill="#aa8254" fill-opacity="1"><g transform="translate(149.172989, 279.765376)"><g><path d="M 8.695312 -40.773438 C 8.128906 -40.84375 7.832031 -40.570312 7.765625 -40.054688 L 2.679688 -0.492188 C 2.617188 0.0234375 2.832031 0.363281 3.398438 0.4375 L 8.757812 1.125 C 9.273438 1.191406 9.621094 0.921875 9.6875 0.40625 L 14.769531 -39.152344 C 14.835938 -39.667969 14.566406 -40.015625 14.054688 -40.082031 Z M 8.695312 -40.773438 "/></g></g></g><g fill="#aa8254" fill-opacity="1"><g transform="translate(170.591358, 282.395368)"><g><path d="M 24.46875 -33.691406 C 24.546875 -38.574219 21.992188 -41.210938 17.109375 -41.285156 L 4.074219 -41.488281 C 3.554688 -41.496094 3.238281 -41.191406 3.230469 -40.671875 L 2.609375 -0.789062 C 2.601562 -0.269531 2.90625 0.046875 3.425781 0.0546875 L 8.828125 0.136719 C 9.347656 0.144531 9.664062 -0.160156 9.671875 -0.679688 L 9.875 -13.765625 L 13.457031 -13.710938 L 16.730469 -0.464844 C 16.828125 0.00390625 17.085938 0.265625 17.605469 0.273438 L 23.003906 0.359375 C 23.574219 0.367188 23.890625 0.0625 23.746094 -0.5625 L 20.375 -14.226562 C 22.882812 -15.277344 24.21875 -17.542969 24.273438 -21.019531 Z M 9.984375 -20.621094 L 10.199219 -34.539062 L 15.339844 -34.457031 C 16.691406 -34.4375 17.40625 -33.699219 17.386719 -32.347656 L 17.234375 -22.585938 C 17.210938 -21.234375 16.472656 -20.519531 15.125 -20.539062 Z M 9.984375 -20.621094 "/></g></g></g><g fill="#aa8254" fill-opacity="1"><g transform="translate(207.008363, 282.245547)"><g><path d="M 1.640625 -7.746094 C 2.25 -2.902344 5.152344 -0.652344 9.996094 -1.261719 L 15.765625 -1.992188 C 20.609375 -2.601562 22.859375 -5.503906 22.25 -10.347656 L 18.917969 -36.730469 C 18.304688 -41.570312 15.402344 -43.824219 10.5625 -43.210938 L 4.789062 -42.484375 C -0.0546875 -41.871094 -2.304688 -38.96875 -1.691406 -34.125 Z M 10.652344 -8.097656 C 9.3125 -7.929688 8.503906 -8.507812 8.328125 -9.898438 L 5.324219 -33.703125 C 5.152344 -35.042969 5.785156 -35.855469 7.125 -36.023438 L 10.113281 -36.402344 C 11.453125 -36.570312 12.265625 -35.941406 12.433594 -34.601562 L 15.441406 -10.796875 C 15.617188 -9.40625 14.980469 -8.644531 13.640625 -8.476562 Z M 10.652344 -8.097656 "/></g></g></g><g fill="#aa8254" fill-opacity="1"><g transform="translate(242.455989, 277.073032)"><g><path d="M -1.1875 -42.734375 C -5.847656 -41.46875 -7.71875 -38.265625 -6.4375 -33.554688 L -3.222656 -21.730469 C -2.960938 -20.777344 -2.347656 -20.296875 -1.363281 -20.242188 L 11.578125 -19.566406 L 13.390625 -12.902344 C 13.757812 -11.546875 13.234375 -10.707031 11.929688 -10.351562 L 9.527344 -9.695312 C 8.273438 -9.355469 7.34375 -9.800781 6.976562 -11.15625 L 5.925781 -15.015625 C 5.777344 -15.566406 5.457031 -15.746094 4.90625 -15.597656 L -0.304688 -14.179688 C -0.808594 -14.042969 -1.039062 -13.710938 -0.890625 -13.160156 L 0.542969 -7.898438 C 1.824219 -3.1875 5.0625 -1.378906 9.722656 -2.644531 L 15.335938 -4.171875 C 20.046875 -5.453125 21.867188 -8.640625 20.585938 -13.351562 L 17.4375 -24.929688 C 17.179688 -25.878906 16.578125 -26.308594 15.628906 -26.425781 L 2.640625 -27.089844 L 0.757812 -34.007812 C 0.402344 -35.308594 0.964844 -36.214844 2.21875 -36.558594 L 4.621094 -37.210938 C 5.976562 -37.578125 6.816406 -37.054688 7.171875 -35.753906 L 8.234375 -31.84375 C 8.371094 -31.34375 8.753906 -31.125 9.257812 -31.257812 L 14.46875 -32.675781 C 15.019531 -32.828125 15.1875 -33.195312 15.050781 -33.699219 L 13.605469 -39.007812 C 12.324219 -43.71875 9.136719 -45.542969 4.425781 -44.261719 Z M -1.1875 -42.734375 "/></g></g></g><g fill="#aa8254" fill-opacity="1"><g transform="translate(276.834705, 267.003799)"><g><path d="M -7.140625 -42.152344 C -11.578125 -40.246094 -12.984375 -36.8125 -11.058594 -32.328125 L -6.222656 -21.066406 C -5.832031 -20.160156 -5.15625 -19.773438 -4.175781 -19.855469 L 8.734375 -20.988281 L 11.457031 -14.644531 C 12.011719 -13.355469 11.609375 -12.449219 10.371094 -11.914062 L 8.078125 -10.929688 C 6.886719 -10.417969 5.902344 -10.730469 5.351562 -12.019531 L 3.773438 -15.695312 C 3.546875 -16.21875 3.207031 -16.355469 2.679688 -16.128906 L -2.28125 -14 C -2.757812 -13.792969 -2.941406 -13.433594 -2.71875 -12.90625 L -0.566406 -7.894531 C 1.359375 -3.410156 4.820312 -2.070312 9.257812 -3.976562 L 14.601562 -6.273438 C 19.085938 -8.199219 20.449219 -11.609375 18.523438 -16.09375 L 13.789062 -27.117188 C 13.398438 -28.023438 12.742188 -28.363281 11.789062 -28.351562 L -1.167969 -27.195312 L -3.996094 -33.78125 C -4.527344 -35.019531 -4.097656 -35.996094 -2.90625 -36.507812 L -0.617188 -37.492188 C 0.671875 -38.046875 1.578125 -37.644531 2.113281 -36.402344 L 3.710938 -32.679688 C 3.917969 -32.203125 4.324219 -32.039062 4.804688 -32.246094 L 9.765625 -34.378906 C 10.289062 -34.601562 10.40625 -34.992188 10.199219 -35.46875 L 8.027344 -40.527344 C 6.101562 -45.011719 2.691406 -46.375 -1.792969 -44.445312 Z M -7.140625 -42.152344 "/></g></g></g><g clip-path="url(#323f3d33bf)"><path fill="#aa8254" d="M 191.527344 153.566406 L 173.726562 136.757812 C 173.726562 136.757812 186.132812 105.921875 191.527344 96.269531 C 193.832031 92.144531 196.589844 86.699219 198.179688 80.683594 C 198.324219 80.710938 198.46875 80.722656 198.613281 80.722656 C 200.9375 80.722656 202.820312 77.34375 202.820312 73.175781 C 202.820312 70.042969 201.757812 67.359375 200.242188 66.21875 C 200.242188 66.21875 198.136719 67.765625 198 70.8125 C 198 70.8125 197.417969 67.5 200.066406 64.65625 C 199.617188 61.320312 198.808594 59.359375 196.8125 56.949219 C 193.273438 52.675781 187.855469 51.25 179.632812 50.875 C 171.921875 50.519531 166.363281 49.605469 159.832031 48.894531 C 157.585938 48.652344 158.546875 52.96875 159.148438 54.011719 C 160.363281 56.117188 162.089844 56.816406 168.230469 58.621094 C 168.230469 58.621094 163.3125 58.617188 158.289062 55.792969 C 157.148438 57.847656 156.519531 60.550781 156.304688 63.617188 C 160.328125 67.773438 159.46875 72.707031 159.46875 72.707031 C 159.265625 68.304688 156.21875 66.058594 156.21875 66.058594 C 154.582031 67.089844 153.40625 69.886719 153.40625 73.175781 C 153.40625 77.34375 155.289062 80.722656 157.613281 80.722656 C 157.835938 80.722656 158.054688 80.691406 158.269531 80.632812 C 160.082031 87.53125 162.933594 94 166.109375 97.832031 C 164.425781 99.457031 162.820312 101.007812 161.324219 102.171875 C 170.765625 101.738281 178.113281 108.269531 178.113281 108.269531 C 178.113281 108.269531 165.046875 100.324219 154.925781 106.167969 C 140.902344 114.269531 125.691406 108.269531 125.691406 108.269531 C 125.691406 108.269531 139.433594 110.742188 153.992188 103.984375 C 154.300781 103.839844 154.613281 103.707031 154.921875 103.582031 C 147.296875 100.640625 140.222656 96.234375 121.808594 105.167969 C 121.808594 105.167969 117.03125 107.175781 114.300781 111.40625 C 114.300781 111.40625 115.046875 107.550781 119.214844 104.082031 C 115.558594 102.789062 108.679688 101.222656 102.757812 104.820312 C 102.757812 104.820312 97.980469 106.828125 95.25 111.058594 C 95.25 111.058594 97.324219 105.914062 103.125 102.167969 C 104 96.9375 106.714844 85.15625 114.171875 77.921875 C 114.515625 77.585938 114.835938 77.289062 115.136719 77.035156 C 112.738281 77.480469 110.800781 78.433594 110.800781 78.433594 C 114.6875 74.828125 118.167969 76.28125 120.707031 76.0625 C 123.710938 75.804688 127.3125 77.335938 129.148438 77.066406 C 131.609375 76.707031 135.476562 76.28125 136.433594 75.75 C 139.082031 74.273438 137.269531 71.242188 135.183594 71.148438 C 132.472656 71.023438 140.183594 71.230469 139.96875 68.113281 C 139.640625 63.285156 140.183594 61.753906 138.761719 59.855469 C 138.121094 59.003906 131.617188 53.097656 129.625 53.101562 C 124.226562 53.117188 115.996094 58.15625 111.570312 60.152344 C 107.832031 61.835938 106.113281 65.230469 104.460938 67.921875 C 101.3125 73.058594 74.332031 106.652344 74.605469 116.828125 C 74.90625 127.890625 96.785156 139.292969 118.964844 131.898438 C 118.964844 131.898438 124.234375 129.453125 127.171875 127.269531 C 127.171875 127.269531 124.003906 130.941406 120.105469 133.371094 C 121.355469 134.957031 122.84375 137.023438 124.496094 139.414062 C 129.765625 146.023438 139.480469 156.347656 152.007812 161.472656 C 152.007812 161.472656 145.292969 160.636719 135.980469 156.921875 C 138.078125 160.210938 140.191406 163.542969 142.230469 166.757812 C 144.734375 170.710938 147.972656 174.15625 151.800781 176.847656 C 155.078125 179.15625 158.667969 181.226562 162.527344 182.804688 C 162.527344 182.804688 157.691406 182.203125 150.535156 179.75 C 152.707031 183.082031 154.53125 185.789062 155.808594 187.480469 C 158.957031 191.664062 164.125 195.574219 162.730469 207.886719 L 191.527344 153.566406 " fill-opacity="1" fillRule="nonzero"/></g><path fill="#ffffff" d="M 254.804688 67.921875 C 253.152344 65.230469 251.433594 61.835938 247.695312 60.152344 C 243.269531 58.15625 235.039062 53.117188 229.640625 53.101562 C 227.648438 53.097656 221.140625 59.003906 220.503906 59.855469 C 219.082031 61.753906 219.625 63.285156 219.296875 68.113281 C 219.082031 71.230469 226.792969 71.023438 224.082031 71.148438 C 221.996094 71.242188 220.183594 74.273438 222.832031 75.75 C 223.789062 76.28125 227.65625 76.707031 230.117188 77.066406 C 231.953125 77.335938 235.554688 75.804688 238.558594 76.0625 C 241.097656 76.28125 244.578125 74.828125 248.460938 78.433594 C 248.460938 78.433594 246.523438 77.480469 244.128906 77.035156 C 244.429688 77.289062 244.746094 77.585938 245.09375 77.921875 C 252.554688 85.15625 255.265625 96.9375 256.140625 102.167969 C 261.941406 105.914062 264.015625 111.058594 264.015625 111.058594 C 261.285156 106.828125 256.507812 104.820312 256.507812 104.820312 C 250.585938 101.222656 243.707031 102.789062 240.054688 104.082031 C 244.21875 107.550781 244.964844 111.40625 244.964844 111.40625 C 242.234375 107.175781 237.457031 105.167969 237.457031 105.167969 C 229.230469 101.175781 223.269531 99.847656 218.507812 99.863281 L 214.835938 106.359375 C 226.875 110.082031 236.953125 108.269531 236.953125 108.269531 C 236.953125 108.269531 225.613281 112.738281 213.488281 108.746094 L 198.777344 134.777344 L 214.273438 149.613281 L 173.007812 196.394531 C 173.007812 196.394531 203.699219 210.167969 224.734375 197.148438 C 210.613281 184.226562 209.214844 177.859375 211.210938 170.707031 C 213.921875 161.007812 230.542969 135.367188 230.542969 135.367188 C 252.722656 142.761719 284.359375 127.890625 284.65625 116.828125 C 284.933594 106.652344 257.949219 73.058594 254.804688 67.921875 " fill-opacity="1" fillRule="nonzero"/></svg>