<svg width="90" height="84" viewBox="0 0 90 84" fill="none" xmlns="http://www.w3.org/2000/svg">
<path d="M38.8802 9.70165L37.248 10.0013L39.3916 21.6772L41.0237 21.3775L38.8802 9.70165Z" fill="#565555"/>
<path d="M7.44702 50.2192L10.7797 49.6073L13.3361 63.5317L10.0033 64.1435C9.11643 64.3063 8.20116 64.1102 7.45888 63.5981C6.7166 63.0861 6.20812 62.3002 6.04529 61.4133L4.70846 54.1316C4.55909 53.2504 4.76269 52.3458 5.27521 51.6136C5.78773 50.8814 6.56795 50.3805 7.44702 50.2192Z" fill="#0AA4D5"/>
<path d="M9.63328 65.0202C8.60332 65.0831 7.58612 64.7656 6.77468 64.1282C5.96324 63.4908 5.41399 62.5776 5.23116 61.5621L3.90321 54.2827C3.69968 53.1819 3.94142 52.0454 4.57533 51.1227C5.20925 50.2001 6.18348 49.5668 7.28401 49.362L11.4354 48.6037L14.2923 64.1968L10.1525 64.9545C9.98106 64.9879 9.80761 65.0098 9.63328 65.0202ZM10.097 50.5316L7.59032 50.9945C6.91989 51.1187 6.32602 51.5035 5.93884 52.0647C5.55167 52.626 5.40278 53.3178 5.52481 53.9886L6.86433 61.2674C6.9218 61.6007 7.04552 61.919 7.22817 62.2037C7.41082 62.4883 7.64869 62.7335 7.92772 62.9246C8.20335 63.1189 8.51553 63.2554 8.84539 63.3257C9.17524 63.396 9.51593 63.3987 9.84685 63.3336L12.3658 62.8816L10.097 50.5316Z" fill="#565555"/>
<path d="M83.596 50.6296L80.2633 51.2414L77.7007 37.2829L81.0334 36.671C81.9203 36.5082 82.8356 36.7044 83.5778 37.2164C84.3201 37.7284 84.8286 38.5143 84.9914 39.4012L86.3345 46.7172C86.4974 47.6041 86.3012 48.5194 85.7892 49.2617C85.2772 50.0039 84.4913 50.5124 83.6044 50.6752L83.596 50.6296Z" fill="#0AA4D5"/>
<path d="M79.5843 52.2121L76.7622 36.6169L80.9136 35.8586C82.0065 35.6722 83.1289 35.9243 84.0371 36.5602C84.9454 37.196 85.5664 38.1643 85.7654 39.2551L87.1049 46.5338C87.2881 47.6264 87.0348 48.7472 86.3994 49.6547C85.7641 50.5623 84.7977 51.1839 83.7084 51.3856L79.5843 52.2121ZM78.6546 37.9458L80.9227 50.2842L83.441 49.8206C84.1114 49.6964 84.7053 49.3116 85.0924 48.7504C85.4796 48.1891 85.6285 47.4973 85.5065 46.8265L84.1785 39.547C84.0488 38.8795 83.6627 38.2894 83.103 37.9033C82.5432 37.5172 81.8545 37.3658 81.1844 37.4815L78.6546 37.9458Z" fill="#565555"/>
<path d="M45.3596 21.935L45.6047 23.2703L35.8349 25.064L35.5897 23.7286C35.5091 23.2894 35.5157 22.8387 35.6093 22.4021C35.7029 21.9655 35.8815 21.5516 36.135 21.1841C36.3886 20.8166 36.712 20.5026 37.0869 20.26C37.4618 20.0175 37.8807 19.8511 38.3199 19.7705L41.3787 19.209C41.8192 19.125 42.272 19.129 42.7109 19.2207C43.1499 19.3125 43.5664 19.4901 43.9364 19.7435C44.3064 19.9969 44.6227 20.3209 44.8669 20.6971C45.1112 21.0732 45.2786 21.4939 45.3596 21.935Z" fill="#0AA4D5"/>
<path d="M35.1439 26.0255L34.7493 23.8868C34.5522 22.785 34.798 21.6499 35.4332 20.7283C36.0685 19.8068 37.0419 19.1732 38.1417 18.9655L41.235 18.3979C42.328 18.2116 43.4503 18.4637 44.3586 19.0995C45.2669 19.7354 45.8878 20.7037 46.0868 21.7944L46.4936 23.944L35.1439 26.0255ZM41.8527 19.9886L41.5283 20.0079L38.4351 20.5755C37.7677 20.6994 37.1767 21.0828 36.7915 21.6418C36.4064 22.2007 36.2586 22.8895 36.3804 23.5573L36.4114 24.0786L44.5528 22.5831L44.5218 22.0619C44.4015 21.4526 44.0651 20.9073 43.5747 20.5264C43.0843 20.1454 42.4727 19.9545 41.8527 19.9886Z" fill="#565555"/>
<path d="M48.8945 22.6346L32.4821 25.6477C17.9778 28.3104 8.37846 42.227 11.0412 56.7313L11.0433 56.7427C13.7061 71.2469 27.6227 80.8463 42.1269 78.1835L58.5394 75.1704C73.0436 72.5076 82.643 58.591 79.9802 44.0868L79.9781 44.0754C77.3153 29.5711 63.3987 19.9718 48.8945 22.6346Z" fill="#F0F0EF"/>
<path d="M38.8874 79.404C31.8964 79.7972 25.0182 77.5123 19.652 73.0143C14.2858 68.5162 10.8347 62.1428 10.0007 55.1906C9.16674 48.2384 11.0126 41.2296 15.1627 35.59C19.3128 29.9503 25.4554 26.1035 32.3411 24.8321L48.7389 21.8227C55.8697 20.624 63.1859 22.2781 69.1074 26.428C75.0289 30.5778 79.0805 36.8903 80.3872 44.0021C81.6939 51.114 80.1508 58.4544 76.0912 64.4381C72.0316 70.4218 65.7812 74.5687 58.69 75.983L42.2806 78.993C41.159 79.1989 40.0258 79.3362 38.8874 79.404ZM52.2319 23.0913C51.1629 23.1512 50.0989 23.2805 49.0466 23.4784L32.6358 26.4652C29.2453 27.0265 26.0006 28.2575 23.0909 30.0864C20.1813 31.9152 17.6652 34.3054 15.6893 37.1172C13.7135 39.9291 12.3175 43.1063 11.5829 46.4636C10.8483 49.8208 10.7897 53.2907 11.4107 56.6708C12.0317 60.0509 13.3197 63.2734 15.1996 66.1503C17.0795 69.0272 19.5136 71.5008 22.3599 73.4268C25.2062 75.3527 28.4076 76.6925 31.7772 77.3678C35.1469 78.043 38.6173 78.0404 41.9859 77.3599L58.3837 74.3505C64.8152 73.1161 70.5395 69.489 74.4023 64.2006C78.2652 58.9123 79.9792 52.356 79.1988 45.8537C78.4185 39.3514 75.2018 33.3869 70.1973 29.1627C65.1929 24.9385 58.7729 22.7689 52.2319 23.0913Z" fill="#565555"/>
<path d="M54.8421 63.2736C54.8421 63.2736 53.7282 66.8272 48.691 67.7429C43.2744 68.7275 41.3652 65.7489 41.3652 65.7489C43.3678 64.548 45.5886 63.7561 47.8992 63.4191C50.1809 62.9107 52.541 62.8612 54.8421 63.2736Z" fill="#565555"/>
<path d="M47.3425 69.6946C42.0835 70.0073 39.9902 66.8653 39.9002 66.7195C39.654 66.3331 39.5646 65.8673 39.6502 65.4172C39.7357 64.9671 39.9899 64.5666 40.3607 64.2975C42.572 62.9706 45.0255 62.0975 47.578 61.7294C50.1143 61.172 52.7369 61.1307 55.2895 61.6079C55.5242 61.6704 55.7441 61.7789 55.9365 61.9271C56.1289 62.0753 56.29 62.2603 56.4103 62.4713C56.5181 62.6872 56.5811 62.9227 56.5954 63.1636C56.6097 63.4044 56.5751 63.6457 56.4937 63.8729C56.4352 64.0624 54.9872 68.4496 48.9731 69.5512C48.4325 69.6285 47.8882 69.6763 47.3425 69.6946ZM45.0881 65.9925C46.1816 66.2125 47.3084 66.2088 48.4004 65.9816C49.4639 65.8086 50.4785 65.4114 51.3768 64.8165C50.3229 64.8639 49.2735 64.9845 48.2364 65.1776C47.1557 65.3666 46.0914 65.6397 45.0533 65.9946L45.0881 65.9925Z" fill="#565555"/>
<path d="M56.6214 35.6458L29.8684 40.5573C24.8194 41.4842 21.4778 46.3287 22.4047 51.3778L22.4068 51.3892C23.3337 56.4382 28.1782 59.7799 33.2273 58.8529L59.9803 53.9414C65.0293 53.0145 68.371 48.17 67.444 43.121L67.4419 43.1095C66.515 38.0605 61.6705 34.7188 56.6214 35.6458Z" fill="#FACA00"/>
<path d="M32.1542 59.81C29.5865 59.9502 27.0615 59.1086 25.0914 57.4559C23.1213 55.8032 21.8534 53.4631 21.5449 50.9101C21.2363 48.3572 21.9102 45.7824 23.4299 43.708C24.9496 41.6335 27.2013 40.2146 29.7285 39.739L56.4758 34.8356C58.4403 34.4781 60.4667 34.7099 62.2998 35.5018C64.1328 36.2936 65.6906 37.6101 66.7771 39.2854C67.8635 40.9608 68.4299 42.9201 68.4051 44.9167C68.3803 46.9133 67.7653 48.858 66.6376 50.5058C65.8876 51.6045 64.9262 52.5428 63.8096 53.2658C62.693 53.9889 61.4435 54.4822 60.1341 54.717L33.3895 59.6668C32.9807 59.7372 32.5683 59.785 32.1542 59.81ZM56.7699 36.4572L30.0348 41.3715C28.9247 41.5543 27.8621 41.9564 26.9091 42.5544C25.9561 43.1523 25.1317 43.9341 24.4842 44.8542C23.8366 45.7742 23.3788 46.814 23.1374 47.9128C22.8961 49.0117 22.8761 50.1477 23.0786 51.2544C23.281 52.3611 23.7019 53.4164 24.3167 54.3586C24.9314 55.3009 25.7277 56.1113 26.6591 56.7424C27.5904 57.3736 28.6382 57.8129 29.7411 58.0347C30.8441 58.2565 31.9802 58.2564 33.0832 58.0343L59.8305 53.1309C60.9253 52.9299 61.9698 52.5153 62.9044 51.9106C63.839 51.306 64.6453 50.5232 65.2773 49.607C65.9094 48.6907 66.3548 47.6589 66.5881 46.5706C66.8214 45.4822 66.838 44.3585 66.637 43.2637C66.4361 42.1689 66.0215 41.1244 65.4168 40.1898C64.8122 39.2552 64.0294 38.4489 63.1131 37.8169C62.1969 37.1848 61.1651 36.7394 60.0767 36.5061C58.9884 36.2728 57.8647 36.2562 56.7699 36.4572Z" fill="#565555"/>
<path d="M38.0279 12.5554C40.3886 12.4151 42.1885 10.3876 42.0481 8.02689C41.9078 5.66621 39.8803 3.8663 37.5196 4.00667C35.1589 4.14704 33.359 6.17454 33.4994 8.53521C33.6398 10.8959 35.6673 12.6958 38.0279 12.5554Z" fill="#0AA4D5"/>
<path d="M38.0775 13.3895C36.8328 13.4591 35.6054 13.0729 34.6247 12.3033C33.644 11.5336 32.9772 10.4331 32.7489 9.20758C32.566 8.21186 32.6826 7.18428 33.0839 6.25483C33.4852 5.32539 34.1531 4.53585 35.0032 3.9861C35.8533 3.43635 36.8474 3.15109 37.8596 3.16642C38.8719 3.18174 39.8568 3.49696 40.6899 4.0722C41.523 4.64743 42.1667 5.45683 42.5397 6.398C42.9126 7.33917 42.998 8.36981 42.7851 9.35953C42.5722 10.3493 42.0705 11.2536 41.3435 11.9581C40.6165 12.6627 39.6969 13.1357 38.701 13.3175C38.4946 13.353 38.2865 13.377 38.0775 13.3895ZM34.3269 8.96263C34.447 9.64284 34.7668 10.2719 35.2455 10.7699C35.7243 11.2678 36.3403 11.6121 37.0153 11.7589C37.6902 11.9057 38.3936 11.8484 39.0359 11.5943C39.6782 11.3401 40.2304 10.9007 40.6222 10.3318C41.014 9.76289 41.2277 9.09032 41.2361 8.39962C41.2445 7.70893 41.0473 7.03135 40.6694 6.45309C40.2916 5.87482 39.7503 5.42203 39.1144 5.15231C38.4785 4.8826 37.7767 4.80815 37.0984 4.93845C36.23 5.13364 35.4693 5.65405 34.9727 6.39273C34.4761 7.13141 34.2814 8.03224 34.4284 8.91009L34.3269 8.96263Z" fill="#565555"/>
<path d="M33.5083 49.3488C34.3361 49.1992 35.1887 49.2697 35.9808 49.553C36.7729 49.8364 37.4766 50.3228 38.0217 50.9636C38.3148 50.1696 38.3919 49.3121 38.2451 48.4785C38.0983 47.645 37.7328 46.8654 37.1861 46.2194C36.6393 45.5733 35.9309 45.084 35.1331 44.8014C34.3354 44.5187 33.4769 44.453 32.6453 44.6107C31.8092 44.7541 31.0264 45.1179 30.3778 45.6646C29.7291 46.2113 29.238 46.9211 28.9551 47.7209C28.6721 48.5207 28.6077 49.3814 28.7683 50.2144C28.9289 51.0474 29.3088 51.8225 29.8688 52.4597C30.1484 51.667 30.6321 50.962 31.2711 50.4158C31.91 49.8696 32.6817 49.5016 33.5083 49.3488Z" fill="#565555"/>
<g style="mix-blend-mode:multiply">
<path d="M55.84 71.0609L38.3153 74.2767C31.4154 75.5356 24.4508 72.5786 18.8325 69.3904C21.7919 72.593 25.5126 74.9957 29.649 76.3756C33.7855 77.7555 38.2035 78.0677 42.4929 77.2832L58.4076 74.3607C61.7544 73.7474 64.9476 72.4807 67.8047 70.6329C70.6617 68.7851 73.1267 66.3925 75.0588 63.5917C76.9909 60.7909 78.3522 57.6369 79.0649 54.3099C79.7776 50.9829 79.8278 47.548 79.2126 44.2015C79.1094 43.6381 78.9584 43.0542 78.8245 42.5623C78.3197 55.577 69.1888 68.5816 55.84 71.0609Z" fill="#F0F0EF"/>
</g>
<path d="M56.7296 40.6677C55.7788 40.7243 54.8662 41.0615 54.107 41.6367C53.3479 42.2119 52.7764 42.9994 52.4648 43.8994C52.1531 44.7994 52.1154 45.7717 52.3563 46.6932C52.5973 47.6146 53.1061 48.444 53.8183 49.0763C54.5306 49.7086 55.4144 50.1155 56.3579 50.2456C57.3015 50.3756 58.2624 50.2229 59.1192 49.8069C59.9759 49.3908 60.6901 48.73 61.1713 47.908C61.6525 47.0861 61.8792 46.1399 61.8227 45.1891C61.7851 44.5578 61.6236 43.9401 61.3473 43.3712C61.0711 42.8024 60.6855 42.2935 60.2125 41.8736C59.7396 41.4538 59.1886 41.1312 58.591 40.9243C57.9934 40.7174 57.3609 40.6302 56.7296 40.6677Z" fill="#565555"/>
</svg>
